<svg width="48" height="48" viewBox="0 0 48 48" fill="none" xmlns="http://www.w3.org/2000/svg">
<g filter="url(#filter0_d_252_508)">
<rect x="4" y="2" width="40" height="40" rx="7" fill="#1E1E1E"/>
<path d="M31.7898 17.13C31.6956 17.0108 31.5755 16.9147 31.4387 16.8488C31.3018 16.783 31.1517 16.7492 30.9998 16.75H19.9998V16.25C20.001 15.8147 20.1443 15.3917 20.4078 15.0451C20.6713 14.6986 21.0406 14.4475 21.4598 14.33C21.7291 14.5898 22.0857 14.7396 22.4598 14.75H23.4598C23.8576 14.75 24.2392 14.592 24.5205 14.3107C24.8018 14.0294 24.9598 13.6478 24.9598 13.25C24.9598 12.8522 24.8018 12.4706 24.5205 12.1893C24.2392 11.908 23.8576 11.75 23.4598 11.75H22.4598C22.2344 11.7503 22.0119 11.8018 21.8093 11.9005C21.6066 11.9992 21.429 12.1427 21.2898 12.32C20.3681 12.4862 19.5339 12.9707 18.9327 13.6888C18.3315 14.407 18.0013 15.3134 17.9998 16.25V16.75H16.9998C16.8479 16.7492 16.6978 16.783 16.5609 16.8488C16.4241 16.9147 16.304 17.0108 16.2098 17.13C16.1096 17.2487 16.0385 17.3892 16.002 17.5402C15.9656 17.6912 15.9648 17.8486 15.9998 18L16.6198 20.49C16.7678 21.0635 17.0823 21.5804 17.5237 21.9755C17.965 22.3705 18.5134 22.6261 19.0998 22.71L19.8798 29.71H18.9998C18.7346 29.71 18.4802 29.8154 18.2927 30.0029C18.1052 30.1904 17.9998 30.4448 17.9998 30.71C17.9998 30.9752 18.1052 31.2296 18.2927 31.4171C18.4802 31.6046 18.7346 31.71 18.9998 31.71H28.9998C29.265 31.71 29.5194 31.6046 29.7069 31.4171C29.8944 31.2296 29.9998 30.9752 29.9998 30.71C29.9998 30.4448 29.8944 30.1904 29.7069 30.0029C29.5194 29.8154 29.265 29.71 28.9998 29.71H28.1198L28.8998 22.71C29.482 22.6199 30.0248 22.3604 30.4605 21.9639C30.8962 21.5673 31.2055 21.0512 31.3498 20.48L31.9998 18C32.0348 17.8486 32.034 17.6912 31.9976 17.5402C31.9611 17.3892 31.89 17.2487 31.7898 17.13ZM26.0998 29.75H21.8998L21.1198 22.75H26.8798L26.0998 29.75ZM29.4098 20C29.355 20.2219 29.226 20.4183 29.044 20.5566C28.8621 20.6949 28.6382 20.7667 28.4098 20.76H19.5598C19.3314 20.7667 19.1075 20.6949 18.9256 20.5566C18.7436 20.4183 18.6146 20.2219 18.5598 20L18.2798 18.75H29.7198L29.4098 20Z" fill="#FEFFFF"/>
</g>
<defs>
<filter id="filter0_d_252_508" x="0.4" y="0.4" width="47.2" height="47.2" filterUnits="userSpaceOnUse" color-interpolation-filters="sRGB">
<feFlood flood-opacity="0" result="BackgroundImageFix"/>
<feColorMatrix in="SourceAlpha" type="matrix" values="0 0 0 0 0 0 0 0 0 0 0 0 0 0 0 0 0 0 127 0" result="hardAlpha"/>
<feOffset dy="2"/>
<feGaussianBlur stdDeviation="1.8"/>
<feComposite in2="hardAlpha" operator="out"/>
<feColorMatrix type="matrix" values="0 0 0 0 0 0 0 0 0 0 0 0 0 0 0 0 0 0 0.22 0"/>
<feBlend mode="normal" in2="BackgroundImageFix" result="effect1_dropShadow_252_508"/>
<feBlend mode="normal" in="SourceGraphic" in2="effect1_dropShadow_252_508" result="shape"/>
</filter>
</defs>
</svg>
