<svg width="25" height="25" viewBox="0 0 25 25" fill="none" xmlns="http://www.w3.org/2000/svg">
<path d="M2 20.7484H23" stroke="#4B4B4B" stroke-width="1.75" stroke-linecap="round" stroke-linejoin="round"/>
<path d="M13.999 20.7484V4.24841C13.999 4.0495 13.92 3.85874 13.7794 3.71808C13.6387 3.57743 13.4479 3.49841 13.249 3.49841H4.24902C4.05011 3.49841 3.85935 3.57743 3.71869 3.71808C3.57804 3.85874 3.49902 4.0495 3.49902 4.24841V20.7484" stroke="#4B4B4B" stroke-width="1.75" stroke-linecap="round" stroke-linejoin="round"/>
<path d="M21.499 20.7484V10.2484C21.499 10.0495 21.42 9.85874 21.2794 9.71808C21.1387 9.57743 20.9479 9.49841 20.749 9.49841H13.999" stroke="#4B4B4B" stroke-width="1.75" stroke-linecap="round" stroke-linejoin="round"/>
<path d="M6.49902 7.24841H9.49902" stroke="#4B4B4B" stroke-width="1.75" stroke-linecap="round" stroke-linejoin="round"/>
<path d="M7.99902 13.2484H10.999" stroke="#4B4B4B" stroke-width="1.75" stroke-linecap="round" stroke-linejoin="round"/>
<path d="M6.49902 16.9984H9.49902" stroke="#4B4B4B" stroke-width="1.75" stroke-linecap="round" stroke-linejoin="round"/>
<path d="M16.999 16.9984H18.499" stroke="#4B4B4B" stroke-width="1.75" stroke-linecap="round" stroke-linejoin="round"/>
<path d="M16.999 13.2484H18.499" stroke="#4B4B4B" stroke-width="1.75" stroke-linecap="round" stroke-linejoin="round"/>
</svg>
