<svg width="24" height="24" viewBox="0 0 24 24" fill="none" xmlns="http://www.w3.org/2000/svg">
<path d="M10.5 3L8 9L12 22L16 9L13.5 3" stroke="#4B4B4B" stroke-width="1.5" stroke-linecap="round" stroke-linejoin="round"/>
<path d="M16.9998 3C17.3103 3 17.6166 3.07229 17.8943 3.21115C18.172 3.35 18.4135 3.55161 18.5998 3.8L21.5998 7.8C21.8571 8.14316 21.9973 8.55995 21.9996 8.98885C22.002 9.41776 21.8664 9.83605 21.6128 10.182L13.6228 21.168C13.4376 21.4255 13.1938 21.6352 12.9115 21.7799C12.6292 21.9245 12.3165 22 11.9993 22C11.6821 22 11.3695 21.9245 11.0872 21.7799C10.8049 21.6352 10.5611 21.4255 10.3758 21.168L2.38584 10.182C2.13245 9.83594 1.99703 9.41759 1.99955 8.98869C2.00207 8.55979 2.1424 8.14306 2.39984 7.8L5.39784 3.803C5.58403 3.55379 5.82578 3.35144 6.10388 3.21204C6.38198 3.07264 6.68876 3.00004 6.99984 3H16.9998Z" stroke="#4B4B4B" stroke-width="1.5" stroke-linecap="round" stroke-linejoin="round"/>
<path d="M2 9H22" stroke="#4B4B4B" stroke-width="1.5" stroke-linecap="round" stroke-linejoin="round"/>
</svg>
