<svg width="24" height="24" viewBox="0 0 24 24" fill="none" xmlns="http://www.w3.org/2000/svg">
<path d="M11.5619 3.26599C11.6051 3.18759 11.6685 3.12222 11.7456 3.07669C11.8226 3.03116 11.9104 3.00714 11.9999 3.00714C12.0894 3.00714 12.1773 3.03116 12.2543 3.07669C12.3314 3.12222 12.3948 3.18759 12.4379 3.26599L15.3899 8.86999C15.4603 8.99975 15.5586 9.11232 15.6776 9.1996C15.7967 9.28689 15.9336 9.34674 16.0785 9.37484C16.2235 9.40295 16.3728 9.39862 16.5159 9.36216C16.6589 9.32571 16.7921 9.25803 16.9059 9.16399L21.1829 5.49999C21.265 5.43321 21.3662 5.3942 21.4719 5.38859C21.5776 5.38297 21.6823 5.41103 21.771 5.46873C21.8598 5.52643 21.9279 5.61079 21.9656 5.70968C22.0033 5.80856 22.0087 5.91686 21.9809 6.01899L19.1469 16.265C19.0891 16.4747 18.9645 16.6597 18.7919 16.7922C18.6194 16.9247 18.4084 16.9973 18.1909 16.999H5.80994C5.59227 16.9975 5.38105 16.925 5.20833 16.7925C5.03561 16.66 4.91083 16.4748 4.85294 16.265L2.01994 6.01999C1.99219 5.91786 1.99756 5.80956 2.03528 5.71068C2.073 5.61179 2.14112 5.52743 2.22984 5.46973C2.31855 5.41203 2.42329 5.38397 2.52898 5.38959C2.63466 5.3952 2.73583 5.43421 2.81794 5.50099L7.09394 9.16499C7.20773 9.25903 7.34094 9.32671 7.484 9.36316C7.62705 9.39962 7.77641 9.40395 7.92134 9.37584C8.06626 9.34774 8.20317 9.28789 8.32223 9.2006C8.44129 9.11331 8.53954 9.00075 8.60994 8.87099L11.5619 3.26599Z" stroke="#FEFFFF" stroke-width="2" stroke-linecap="round" stroke-linejoin="round"/>
<path d="M5 21H19" stroke="#FEFFFF" stroke-width="2" stroke-linecap="round" stroke-linejoin="round"/>
</svg>
