<svg width="24" height="24" viewBox="0 0 24 24" fill="none" xmlns="http://www.w3.org/2000/svg">
<g clip-path="url(#clip0_834_830)">
<path d="M12 24C18.6274 24 24 18.6274 24 12C24 5.37258 18.6274 0 12 0C5.37258 0 0 5.37258 0 12C0 18.6274 5.37258 24 12 24Z" fill="#F0F0F0"/>
<path d="M11.9997 0C6.84013 0 2.44161 3.2565 0.746094 7.82611H23.2534C21.5578 3.2565 17.1593 0 11.9997 0Z" fill="#D80027"/>
<path d="M11.9997 24.0001C17.1593 24.0001 21.5578 20.7436 23.2533 16.174H0.746094C2.44161 20.7436 6.84012 24.0001 11.9997 24.0001Z" fill="black"/>
<path d="M16.174 10.6957H13.0436C13.0436 10.1194 12.5764 9.65222 12.0001 9.65222C11.4238 9.65222 10.9566 10.1194 10.9566 10.6957H7.82617C7.82617 11.272 8.32816 11.7392 8.90444 11.7392H8.86966C8.86966 12.3155 9.33681 12.7827 9.91314 12.7827C9.91314 13.359 10.3803 13.8262 10.9566 13.8262H13.0436C13.6199 13.8262 14.0871 13.359 14.0871 12.7827C14.6634 12.7827 15.1306 12.3155 15.1306 11.7392H15.0958C15.6721 11.7392 16.174 11.272 16.174 10.6957Z" fill="#FF9811"/>
</g>
<defs>
<clipPath id="clip0_834_830">
<rect width="24" height="24" fill="white"/>
</clipPath>
</defs>
</svg>
