<svg width="48" height="48" viewBox="0 0 48 48" fill="none" xmlns="http://www.w3.org/2000/svg">
<g filter="url(#filter0_d_252_525)">
<rect x="4" y="2" width="40" height="40" rx="7" fill="#1E1E1E"/>
<path d="M13.5 30.2484H34.5" stroke="#F8FAFB" stroke-width="1.75" stroke-linecap="round" stroke-linejoin="round"/>
<path d="M25.4995 30.2484V13.7484C25.4995 13.5495 25.4205 13.3587 25.2798 13.2181C25.1392 13.0774 24.9484 12.9984 24.7495 12.9984H15.7495C15.5506 12.9984 15.3598 13.0774 15.2192 13.2181C15.0785 13.3587 14.9995 13.5495 14.9995 13.7484V30.2484" stroke="#F8FAFB" stroke-width="1.75" stroke-linecap="round" stroke-linejoin="round"/>
<path d="M32.9995 30.2484V19.7484C32.9995 19.5495 32.9205 19.3587 32.7798 19.2181C32.6392 19.0774 32.4484 18.9984 32.2495 18.9984H25.4995" stroke="#F8FAFB" stroke-width="1.75" stroke-linecap="round" stroke-linejoin="round"/>
<path d="M17.9995 16.7484H20.9995" stroke="#F8FAFB" stroke-width="1.75" stroke-linecap="round" stroke-linejoin="round"/>
<path d="M19.4995 22.7484H22.4995" stroke="#F8FAFB" stroke-width="1.75" stroke-linecap="round" stroke-linejoin="round"/>
<path d="M17.9995 26.4984H20.9995" stroke="#F8FAFB" stroke-width="1.75" stroke-linecap="round" stroke-linejoin="round"/>
<path d="M28.4995 26.4984H29.9995" stroke="#F8FAFB" stroke-width="1.75" stroke-linecap="round" stroke-linejoin="round"/>
<path d="M28.4995 22.7484H29.9995" stroke="#F8FAFB" stroke-width="1.75" stroke-linecap="round" stroke-linejoin="round"/>
</g>
<defs>
<filter id="filter0_d_252_525" x="0.4" y="0.4" width="47.2" height="47.2" filterUnits="userSpaceOnUse" color-interpolation-filters="sRGB">
<feFlood flood-opacity="0" result="BackgroundImageFix"/>
<feColorMatrix in="SourceAlpha" type="matrix" values="0 0 0 0 0 0 0 0 0 0 0 0 0 0 0 0 0 0 127 0" result="hardAlpha"/>
<feOffset dy="2"/>
<feGaussianBlur stdDeviation="1.8"/>
<feComposite in2="hardAlpha" operator="out"/>
<feColorMatrix type="matrix" values="0 0 0 0 0 0 0 0 0 0 0 0 0 0 0 0 0 0 0.22 0"/>
<feBlend mode="normal" in2="BackgroundImageFix" result="effect1_dropShadow_252_525"/>
<feBlend mode="normal" in="SourceGraphic" in2="effect1_dropShadow_252_525" result="shape"/>
</filter>
</defs>
</svg>
