<svg width="24" height="24" viewBox="0 0 24 24" fill="none" xmlns="http://www.w3.org/2000/svg">
<path d="M18 3.25004H6.00004C5.49338 3.19131 4.98 3.24791 4.4983 3.4156C4.0166 3.5833 3.57906 3.85774 3.2184 4.2184C2.85774 4.57906 2.5833 5.0166 2.4156 5.4983C2.24791 5.98 2.19131 6.49338 2.25004 7.00004V17C2.19131 17.5067 2.24791 18.0201 2.4156 18.5018C2.5833 18.9835 2.85774 19.421 3.2184 19.7817C3.57906 20.1423 4.0166 20.4168 4.4983 20.5845C4.98 20.7522 5.49338 20.8088 6.00004 20.75H18C18.5067 20.8088 19.0201 20.7522 19.5018 20.5845C19.9835 20.4168 20.421 20.1423 20.7817 19.7817C21.1423 19.421 21.4168 18.9835 21.5845 18.5018C21.7522 18.0201 21.8088 17.5067 21.75 17V7.00004C21.8088 6.49338 21.7522 5.98 21.5845 5.4983C21.4168 5.0166 21.1423 4.57906 20.7817 4.2184C20.421 3.85774 19.9835 3.5833 19.5018 3.4156C19.0201 3.24791 18.5067 3.19131 18 3.25004ZM3.75004 17V7.00004C3.75004 5.42304 4.42304 4.75004 6.00004 4.75004H8.25004V19.25H6.00004C4.42304 19.25 3.75004 18.577 3.75004 17ZM20.25 17C20.25 18.577 19.577 19.25 18 19.25H9.75004V4.75004H18C19.577 4.75004 20.25 5.42304 20.25 7.00004V17Z" fill="#686969"/>
</svg>
