<svg width="48" height="48" viewBox="0 0 48 48" fill="none" xmlns="http://www.w3.org/2000/svg">
<g filter="url(#filter0_d_1526_1117)">
<rect x="4" y="2" width="40" height="40" rx="7" fill="#1E1E1E"/>
<path d="M24.4135 27.8812L29.1419 30.8769C29.7463 31.2598 30.4967 30.6903 30.3173 29.9847L28.9512 24.6108C28.9127 24.4611 28.9173 24.3036 28.9643 24.1564C29.0114 24.0092 29.0991 23.8783 29.2172 23.7787L33.4573 20.2496C34.0144 19.7859 33.7269 18.8613 33.0111 18.8148L27.4738 18.4554C27.3247 18.4448 27.1816 18.392 27.0613 18.3032C26.941 18.2144 26.8484 18.0932 26.7943 17.9538L24.7292 12.7532C24.673 12.6053 24.5732 12.4779 24.443 12.388C24.3127 12.2981 24.1582 12.25 24 12.25C23.8418 12.25 23.6873 12.2981 23.557 12.388C23.4268 12.4779 23.327 12.6053 23.2708 12.7532L21.2057 17.9538C21.1516 18.0932 21.059 18.2144 20.9387 18.3032C20.8184 18.392 20.6753 18.4448 20.5262 18.4554L14.9889 18.8148C14.2732 18.8613 13.9856 19.7859 14.5427 20.2496L18.7828 23.7787C18.9009 23.8783 18.9886 24.0092 19.0357 24.1564C19.0827 24.3036 19.0873 24.4611 19.0488 24.6108L17.7819 29.5945C17.5667 30.4412 18.4672 31.1246 19.1924 30.6651L23.5865 27.8812C23.71 27.8025 23.8535 27.7607 24 27.7607C24.1465 27.7607 24.29 27.8025 24.4135 27.8812V27.8812Z" stroke="#F8FAFB" stroke-width="2" stroke-linecap="round" stroke-linejoin="round"/>
</g>
<defs>
<filter id="filter0_d_1526_1117" x="0.4" y="0.4" width="47.2" height="47.2" filterUnits="userSpaceOnUse" color-interpolation-filters="sRGB">
<feFlood flood-opacity="0" result="BackgroundImageFix"/>
<feColorMatrix in="SourceAlpha" type="matrix" values="0 0 0 0 0 0 0 0 0 0 0 0 0 0 0 0 0 0 127 0" result="hardAlpha"/>
<feOffset dy="2"/>
<feGaussianBlur stdDeviation="1.8"/>
<feComposite in2="hardAlpha" operator="out"/>
<feColorMatrix type="matrix" values="0 0 0 0 0 0 0 0 0 0 0 0 0 0 0 0 0 0 0.22 0"/>
<feBlend mode="normal" in2="BackgroundImageFix" result="effect1_dropShadow_1526_1117"/>
<feBlend mode="normal" in="SourceGraphic" in2="effect1_dropShadow_1526_1117" result="shape"/>
</filter>
</defs>
</svg>
