<svg width="48" height="49" viewBox="0 0 48 49" fill="none" xmlns="http://www.w3.org/2000/svg">
<g filter="url(#filter0_d_247_1734)">
<rect x="4" y="2.5" width="40" height="40" rx="7" fill="white"/>
<rect x="4.5" y="3" width="39" height="39" rx="6.5" stroke="#E9E9E9" stroke-opacity="0.6"/>
<path d="M24.4135 28.3812L29.1419 31.3769C29.7463 31.7598 30.4967 31.1903 30.3173 30.4847L28.9512 25.1108C28.9127 24.9611 28.9173 24.8036 28.9643 24.6564C29.0114 24.5092 29.0991 24.3783 29.2172 24.2787L33.4573 20.7496C34.0144 20.2859 33.7269 19.3613 33.0111 19.3148L27.4738 18.9554C27.3247 18.9448 27.1816 18.892 27.0613 18.8032C26.941 18.7144 26.8484 18.5932 26.7943 18.4538L24.7292 13.2532C24.673 13.1053 24.5732 12.9779 24.443 12.888C24.3127 12.7981 24.1582 12.75 24 12.75C23.8418 12.75 23.6873 12.7981 23.557 12.888C23.4268 12.9779 23.327 13.1053 23.2708 13.2532L21.2057 18.4538C21.1516 18.5932 21.059 18.7144 20.9387 18.8032C20.8184 18.892 20.6753 18.9448 20.5262 18.9554L14.9889 19.3148C14.2732 19.3613 13.9856 20.2859 14.5427 20.7496L18.7828 24.2787C18.9009 24.3783 18.9886 24.5092 19.0357 24.6564C19.0827 24.8036 19.0873 24.9611 19.0488 25.1108L17.7819 30.0945C17.5667 30.9412 18.4672 31.6246 19.1924 31.1651L23.5865 28.3812C23.71 28.3025 23.8535 28.2607 24 28.2607C24.1465 28.2607 24.29 28.3025 24.4135 28.3812V28.3812Z" stroke="#4B4B4B" stroke-width="2" stroke-linecap="round" stroke-linejoin="round"/>
</g>
<defs>
<filter id="filter0_d_247_1734" x="0.4" y="0.9" width="47.2" height="47.2" filterUnits="userSpaceOnUse" color-interpolation-filters="sRGB">
<feFlood flood-opacity="0" result="BackgroundImageFix"/>
<feColorMatrix in="SourceAlpha" type="matrix" values="0 0 0 0 0 0 0 0 0 0 0 0 0 0 0 0 0 0 127 0" result="hardAlpha"/>
<feOffset dy="2"/>
<feGaussianBlur stdDeviation="1.8"/>
<feComposite in2="hardAlpha" operator="out"/>
<feColorMatrix type="matrix" values="0 0 0 0 0 0 0 0 0 0 0 0 0 0 0 0 0 0 0.04 0"/>
<feBlend mode="normal" in2="BackgroundImageFix" result="effect1_dropShadow_247_1734"/>
<feBlend mode="normal" in="SourceGraphic" in2="effect1_dropShadow_247_1734" result="shape"/>
</filter>
</defs>
</svg>
