<svg width="24" height="24" viewBox="0 0 24 24" fill="none" xmlns="http://www.w3.org/2000/svg">
<g clip-path="url(#clip0_834_875)">
<path d="M0 12C0 13.4678 0.264047 14.8739 0.746391 16.1739L12 16.6956L23.2536 16.1739C23.736 14.8739 24 13.4678 24 12C24 10.5321 23.736 9.12607 23.2536 7.82609L12 7.30432L0.746391 7.82604C0.264047 9.12607 0 10.5321 0 12H0Z" fill="#FFDA44"/>
<path d="M11.9997 0C6.84013 0 2.44161 3.2565 0.746094 7.82611H23.2534C21.5578 3.2565 17.1593 0 11.9997 0Z" fill="#D80027"/>
<path d="M23.2533 16.1739H0.746094C2.44161 20.7435 6.84012 24 11.9997 24C17.1593 24 21.5578 20.7435 23.2533 16.1739Z" fill="#496E2D"/>
<path d="M12 7.82611L13.0359 11.0145H16.3888L13.6764 12.9853L14.7124 16.1739L12 14.2033L9.28753 16.1739L10.3237 12.9853L7.61133 11.0145H10.964L12 7.82611Z" fill="black"/>
</g>
<defs>
<clipPath id="clip0_834_875">
<rect width="24" height="24" fill="white"/>
</clipPath>
</defs>
</svg>
