<svg width="96" height="39" viewBox="0 0 96 39" fill="none" xmlns="http://www.w3.org/2000/svg">
<path d="M48.4808 17.2802H44.084V31.6266H48.4808V17.2802Z" fill="white"/>
<path d="M56.0629 12.6006V31.6268H51.666V12.6006H56.0629Z" fill="white"/>
<path d="M79.8487 17.2802L75.9652 31.6266H71.1039L68.8409 22.3196L66.5011 31.6266H61.6677L57.7598 17.2802H62.1566L64.1891 27.5406L66.6058 17.2802H71.2611L73.7022 27.4882L75.7068 17.2802H79.8452H79.8487Z" fill="white"/>
<path d="M81.4798 20.5452C82.035 19.4312 82.7964 18.5756 83.7568 17.9749C84.7171 17.3742 85.7893 17.0739 86.9697 17.0739C87.9825 17.0739 88.8695 17.2799 89.6308 17.692C90.3922 18.1041 90.9824 18.6419 91.391 19.3124V17.2799H95.7878V31.6264H91.391V29.5938C90.9614 30.2609 90.3677 30.8022 89.6029 31.2143C88.8416 31.6264 87.9545 31.8324 86.9418 31.8324C85.7753 31.8324 84.7137 31.5286 83.7533 30.9209C82.7929 30.3133 82.035 29.4472 81.4763 28.3226C80.9175 27.2016 80.6416 25.9024 80.6416 24.4287C80.6416 22.9549 80.921 21.6593 81.4763 20.5452H81.4798ZM90.4795 21.8548C89.8718 21.2227 89.128 20.9049 88.2549 20.9049C87.3818 20.9049 86.6379 21.2192 86.0303 21.8444C85.4226 22.4695 85.1188 23.3321 85.1188 24.4287C85.1188 25.5253 85.4226 26.3949 86.0303 27.0375C86.6379 27.68 87.3818 28.0013 88.2549 28.0013C89.128 28.0013 89.8718 27.6835 90.4795 27.0514C91.0871 26.4158 91.391 25.5532 91.391 24.4531C91.391 23.3531 91.0871 22.4904 90.4795 21.8548Z" fill="white"/>
<path d="M21.3843 5.58423V32.4123C21.3843 35.496 18.8838 37.9581 15.8 37.9581C12.7163 37.9581 10.2158 35.496 10.2158 32.4123V5.58423C10.2158 2.50051 12.7163 0 15.8 0C18.8838 0 21.3843 2.50051 21.3843 5.58423Z" fill="white"/>
<g filter="url(#filter0_f_93_926)">
<rect x="11.5513" y="26.4636" width="10.325" height="1.53004" transform="rotate(-43.6791 11.5513 26.4636)" fill="black"/>
</g>
<path d="M40.3545 32.4159C40.3545 35.4996 37.854 38.0001 34.7703 38.0001C31.6865 38.0001 29.186 35.4996 29.186 32.4159C29.186 29.3322 31.6865 26.8317 34.7703 26.8317C37.854 26.8317 40.3545 29.3322 40.3545 32.4159Z" fill="#EE1C25"/>
<path d="M38.7163 9.49237C36.5371 7.30967 32.9993 7.30967 30.8166 9.49237L21.3804 18.9286L11.8463 28.4627C11.7136 28.5954 11.5879 28.7351 11.4727 28.8748C11.4622 28.8887 11.4517 28.8992 11.4447 28.9132C11.3574 29.0215 11.2771 29.1332 11.2003 29.245C9.69507 31.4207 9.9081 34.4276 11.8463 36.3658C13.7846 38.3041 16.788 38.5136 18.9672 37.0119C19.0789 36.9351 19.1907 36.8547 19.2955 36.7709C19.3059 36.7604 19.3199 36.7535 19.3339 36.743C19.4736 36.6277 19.6133 36.5055 19.746 36.3693L21.3804 34.7349L38.7163 17.399C40.899 15.2163 40.899 11.6821 38.7163 9.49936V9.49237Z" fill="white"/>
<path d="M48.9873 12.8132C48.9873 14.308 47.7755 15.5198 46.2808 15.5198C44.7861 15.5198 43.5742 14.308 43.5742 12.8132C43.5742 11.3185 44.7861 10.1067 46.2808 10.1067C47.7755 10.1067 48.9873 11.3185 48.9873 12.8132Z" fill="#EE1C25"/>
<defs>
<filter id="filter0_f_93_926" x="0.55127" y="8.33301" width="30.5239" height="30.2372" filterUnits="userSpaceOnUse" color-interpolation-filters="sRGB">
<feFlood flood-opacity="0" result="BackgroundImageFix"/>
<feBlend mode="normal" in="SourceGraphic" in2="BackgroundImageFix" result="shape"/>
<feGaussianBlur stdDeviation="5.5" result="effect1_foregroundBlur_93_926"/>
</filter>
</defs>
</svg>
