<svg width="96" height="42" viewBox="0 0 96 42" fill="none" xmlns="http://www.w3.org/2000/svg">
<path d="M50.2548 20.2943H46.0894V35.1635H50.2548V20.2943Z" fill="#1E1E1E"/>
<path d="M57.4374 15.4441V35.1635H53.272V15.4441H57.4374Z" fill="#1E1E1E"/>
<path d="M79.9718 20.2943L76.2927 35.1635H71.6873L69.5433 25.5174L67.3266 35.1635H62.7476L59.0454 20.2943H63.2108L65.1364 30.9286L67.4259 20.2943H71.8361L74.1488 30.8743L76.0479 20.2943H79.9685H79.9718Z" fill="#1E1E1E"/>
<path d="M81.5172 23.6785C82.0432 22.5239 82.7645 21.6371 83.6743 21.0145C84.5842 20.392 85.5999 20.0807 86.7182 20.0807C87.6777 20.0807 88.518 20.2942 89.2393 20.7214C89.9605 21.1485 90.5197 21.7059 90.9068 22.4008V20.2942H95.0722V35.1635H90.9068V33.0569C90.4998 33.7482 89.9374 34.3092 89.2128 34.7364C88.4916 35.1635 87.6512 35.377 86.6917 35.377C85.5867 35.377 84.5809 35.0621 83.671 34.4323C82.7612 33.8025 82.0432 32.9049 81.5139 31.7393C80.9845 30.5775 80.7231 29.231 80.7231 27.7035C80.7231 26.1761 80.9878 24.8332 81.5139 23.6785H81.5172ZM90.0432 25.0359C89.4676 24.3807 88.7628 24.0514 87.9357 24.0514C87.1086 24.0514 86.4039 24.3771 85.8282 25.025C85.2525 25.6729 84.9647 26.567 84.9647 27.7035C84.9647 28.8401 85.2525 29.7413 85.8282 30.4073C86.4039 31.0733 87.1086 31.4063 87.9357 31.4063C88.7628 31.4063 89.4676 31.077 90.0432 30.4218C90.6189 29.7631 90.9068 28.869 90.9068 27.7289C90.9068 26.5887 90.6189 25.6947 90.0432 25.0359Z" fill="#1E1E1E"/>
<path d="M24.5841 8.17235V35.9779C24.5841 39.174 22.2152 41.7258 19.2937 41.7258C16.3723 41.7258 14.0034 39.174 14.0034 35.9779V8.17235C14.0034 4.97626 16.3723 2.38464 19.2937 2.38464C22.2152 2.38464 24.5841 4.97626 24.5841 8.17235Z" fill="#1E1E1E"/>
<g filter="url(#filter0_f_243_1435)">
<rect x="11.1279" y="17.2852" width="8.69474" height="1.28846" transform="rotate(-43.6791 11.1279 17.2852)" fill="black"/>
</g>
<path d="M42.5557 35.9816C42.5557 39.1776 40.1868 41.7693 37.2654 41.7693C34.344 41.7693 31.9751 39.1776 31.9751 35.9816C31.9751 32.7855 34.344 30.1938 37.2654 30.1938C40.1868 30.1938 42.5557 32.7855 42.5557 35.9816Z" fill="#EE1C25"/>
<path d="M41.0041 12.2227C38.9396 9.96044 35.5881 9.96044 33.5203 12.2227L24.5807 22.0028L15.5484 31.8842C15.4227 32.0218 15.3036 32.1665 15.1944 32.3113C15.1845 32.3258 15.1745 32.3367 15.1679 32.3511C15.0852 32.4634 15.0091 32.5792 14.9363 32.695C13.5104 34.95 13.7122 38.0665 15.5484 40.0753C17.3846 42.0842 20.23 42.3014 22.2945 40.7449C22.4003 40.6653 22.5062 40.5821 22.6055 40.4952C22.6154 40.4843 22.6286 40.4771 22.6419 40.4662C22.7742 40.3468 22.9065 40.2201 23.0323 40.0789L24.5807 38.385L41.0041 20.4174C43.072 18.1552 43.072 14.4922 41.0041 12.2299V12.2227Z" fill="#1E1E1E"/>
<path d="M50.7347 15.6648C50.7347 17.214 49.5866 18.47 48.1705 18.47C46.7545 18.47 45.6064 17.214 45.6064 15.6648C45.6064 14.1156 46.7545 12.8596 48.1705 12.8596C49.5866 12.8596 50.7347 14.1156 50.7347 15.6648Z" fill="#EE1C25"/>
<defs>
<filter id="filter0_f_243_1435" x="0.12793" y="0.280396" width="29.1782" height="28.9366" filterUnits="userSpaceOnUse" color-interpolation-filters="sRGB">
<feFlood flood-opacity="0" result="BackgroundImageFix"/>
<feBlend mode="normal" in="SourceGraphic" in2="BackgroundImageFix" result="shape"/>
<feGaussianBlur stdDeviation="5.5" result="effect1_foregroundBlur_243_1435"/>
</filter>
</defs>
</svg>
