<svg width="26" height="32" viewBox="0 0 26 32" fill="none" xmlns="http://www.w3.org/2000/svg">
<path d="M9.40795 4.70251V27.2945C9.40795 29.8914 7.30226 31.9647 4.70544 31.9647C2.10862 31.9647 0.00292969 29.8914 0.00292969 27.2945V4.70251C0.00292969 2.10569 2.10862 0 4.70544 0C7.30226 0 9.40795 2.10569 9.40795 4.70251Z" fill="white"/>
<path d="M25.383 27.2975C25.383 29.8943 23.2774 32 20.6805 32C18.0837 32 15.978 29.8943 15.978 27.2975C15.978 24.7007 18.0837 22.595 20.6805 22.595C23.2774 22.595 25.383 24.7007 25.383 27.2975Z" fill="#EE1C25"/>
<path d="M24.0037 7.99342C22.1686 6.15535 19.1894 6.15535 17.3514 7.99342L9.40503 15.9397L1.37636 23.9684C1.2646 24.0802 1.15873 24.1978 1.06168 24.3154C1.05286 24.3272 1.04403 24.336 1.03815 24.3478C0.96463 24.439 0.896989 24.5331 0.832289 24.6272C-0.435241 26.4594 -0.255845 28.9915 1.37636 30.6237C3.00856 32.2559 5.53774 32.4324 7.37287 31.1678C7.46697 31.1031 7.56108 31.0354 7.64931 30.9648C7.65813 30.956 7.6699 30.9501 7.68166 30.9413C7.7993 30.8443 7.91693 30.7413 8.02869 30.6266L9.40503 29.2503L24.0037 14.6516C25.8418 12.8136 25.8418 9.83737 24.0037 7.9993V7.99342Z" fill="white"/>
</svg>
