<svg width="20" height="20" viewBox="0 0 20 20" fill="none" xmlns="http://www.w3.org/2000/svg">
<path d="M17.4794 2.52065C17.3222 2.36361 17.1261 2.25127 16.9111 2.19518C16.6961 2.13909 16.47 2.14127 16.2562 2.20151L1.69928 6.30728C1.45436 6.37635 1.23635 6.51854 1.0744 6.71484C0.912445 6.91113 0.814267 7.15218 0.792984 7.40577C0.771702 7.65936 0.828329 7.91341 0.955297 8.13395C1.08227 8.35449 1.27352 8.53103 1.50351 8.63996L7.59207 11.524L11.7547 7.36135C11.872 7.24413 12.0309 7.17828 12.1967 7.17828C12.3625 7.17828 12.5215 7.24413 12.6387 7.36135C12.7559 7.47857 12.8218 7.63755 12.8218 7.80332C12.8218 7.96909 12.7559 8.12807 12.6387 8.24529L8.47602 12.408L11.3601 18.4965C11.46 18.7108 11.6191 18.8919 11.8186 19.0186C12.0182 19.1453 12.2498 19.2123 12.4862 19.2116C12.522 19.2116 12.558 19.2101 12.5943 19.2071C12.8483 19.1872 13.0901 19.0895 13.2866 18.9274C13.4832 18.7652 13.625 18.5464 13.6928 18.3008L17.7985 3.74387C17.8587 3.53001 17.8609 3.30398 17.8048 3.089C17.7487 2.87402 17.6364 2.67786 17.4794 2.52065Z" fill="#989898"/>
</svg>
