<svg width="168" height="171" viewBox="0 0 168 171" fill="none" xmlns="http://www.w3.org/2000/svg">
<rect x="0.596252" y="0.5" width="166.808" height="170" rx="83.4038" fill="#222222" fill-opacity="0.06"/>
<path d="M96.7917 63.1144C96.7917 66.5069 95.444 69.7606 93.0451 72.1595C90.6462 74.5584 87.3926 75.906 84 75.906C80.6075 75.906 77.3539 74.5584 74.955 72.1595C72.5561 69.7606 71.2084 66.5069 71.2084 63.1144C71.2084 59.7218 72.5561 56.4682 74.955 54.0693C77.3539 51.6704 80.6075 50.3228 84 50.3228C87.3926 50.3228 90.6462 51.6704 93.0451 54.0693C95.444 56.4682 96.7917 59.7218 96.7917 63.1144Z" stroke="#989898" stroke-width="1.277" stroke-miterlimit="10" stroke-linecap="square" stroke-linejoin="round"/>
<path d="M84 87.0988C55.2186 87.0988 55.2186 117.479 55.2186 117.479H112.781C112.781 117.479 112.781 87.0988 84 87.0988Z" stroke="#989898" stroke-width="1.277" stroke-miterlimit="10" stroke-linecap="square" stroke-linejoin="round"/>
</svg>
