<svg width="26" height="32" viewBox="0 0 26 32" fill="none" xmlns="http://www.w3.org/2000/svg">
<path d="M9.71654 4.70251V27.2945C9.71654 29.8914 7.61085 31.9647 5.01403 31.9647C2.41721 31.9647 0.311523 29.8914 0.311523 27.2945V4.70251C0.311523 2.10569 2.41721 0 5.01403 0C7.61085 0 9.71654 2.10569 9.71654 4.70251Z" fill="#1E1E1E"/>
<path d="M25.6916 27.2975C25.6916 29.8943 23.5859 32 20.9891 32C18.3923 32 16.2866 29.8943 16.2866 27.2975C16.2866 24.7007 18.3923 22.595 20.9891 22.595C23.5859 22.595 25.6916 24.7007 25.6916 27.2975Z" fill="#EE1C25"/>
<path d="M24.3123 7.99342C22.4772 6.15535 19.498 6.15535 17.66 7.99342L9.71362 15.9397L1.68495 23.9684C1.5732 24.0802 1.46732 24.1978 1.37027 24.3154C1.36145 24.3272 1.35263 24.336 1.34675 24.3478C1.27322 24.439 1.20558 24.5331 1.14088 24.6272C-0.126648 26.4594 0.0527483 28.9915 1.68495 30.6237C3.31715 32.2559 5.84633 32.4324 7.68146 31.1678C7.77557 31.1031 7.86968 31.0354 7.9579 30.9648C7.96673 30.956 7.97849 30.9501 7.99025 30.9413C8.10789 30.8443 8.22553 30.7413 8.33728 30.6266L9.71362 29.2503L24.3123 14.6516C26.1503 12.8136 26.1503 9.83737 24.3123 7.9993V7.99342Z" fill="#1E1E1E"/>
</svg>
