<svg width="27" height="25" viewBox="0 0 27 25" fill="none" xmlns="http://www.w3.org/2000/svg">
<g clip-path="url(#clip0_93_150)">
<path d="M20.3219 21.4103C20.292 21.4219 20.262 21.4336 20.2315 21.4452C20.1181 21.3769 20.009 21.2985 19.8897 21.2419C19.5147 21.0624 19.1504 20.8389 18.7545 20.7261C17.7349 20.4354 16.7752 20.6398 15.8471 21.1328C14.1342 22.0431 12.2971 22.3507 10.3868 22.0187C5.59742 21.1857 2.38825 16.8017 3.03233 12.0238C3.49025 8.62841 5.89913 5.89867 9.25648 5.04453C10.0434 4.84437 10.8715 4.80465 11.6809 4.69133C12.3389 4.59919 12.7743 4.06595 12.7272 3.40933C12.6855 2.82791 12.1527 2.3455 11.5322 2.34497C11.2658 2.34497 10.9983 2.37092 10.7324 2.39581C9.25648 2.53349 7.83137 2.88086 6.51218 3.55284C4.04873 4.80836 2.31977 6.74168 1.32851 9.29721C0.408926 11.669 0.377899 14.0927 1.10597 16.5121C1.94263 19.2937 3.66357 21.4283 6.1543 22.9396C8.44978 24.3322 10.9501 24.7707 13.5992 24.3407C14.9002 24.1294 16.1301 23.6899 17.2738 23.0349C17.5514 22.876 17.8259 22.8326 18.1131 22.9607C18.4855 23.1275 18.8476 23.3166 19.2167 23.4903C20.0898 23.9012 20.9425 23.8631 21.7064 23.27C22.4703 22.6769 22.771 21.8715 22.5655 20.9194C22.4821 20.5339 22.3296 20.1632 22.221 19.7819C22.0723 19.2588 21.9862 18.7276 22.1852 18.1992C22.3708 17.7057 22.5907 17.2243 22.7742 16.7297C23.0331 16.0329 22.5126 15.3058 21.762 15.2952C21.1533 15.2867 20.7472 15.5706 20.5001 16.1721C20.3626 16.5063 20.2224 16.8393 20.0785 17.1708C19.8041 17.8047 19.6661 18.4602 19.7201 19.1539C19.7693 19.7857 19.9416 20.3824 20.1925 20.9617C20.2535 21.1031 20.2792 21.2593 20.3214 21.4087L20.3219 21.4103ZM12.1543 13.5123C11.8692 13.5123 11.5835 13.5123 11.2984 13.5123C9.72029 13.5123 8.14218 13.5112 6.56407 13.5128C6.06871 13.5133 5.72046 13.7045 5.62042 14.1292C5.55516 14.4061 5.58083 14.7276 5.64984 15.0082C6.36882 17.9355 9.12917 20.0425 12.1789 20.0086C14.1336 19.9869 15.7513 19.2175 17.0764 17.8221C17.8852 16.9707 18.4384 15.9741 18.6903 14.8261C18.8712 14.0016 18.4742 13.5123 17.6376 13.5123C15.8096 13.5118 13.9822 13.5123 12.1543 13.5123ZM26.8318 5.88966C26.6991 5.78164 26.6247 5.70221 26.5343 5.65085C25.5661 5.10755 24.5984 4.56372 23.6231 4.03312C23.3685 3.89439 23.1978 3.70693 23.0689 3.45276C22.6046 2.53984 22.1306 1.63222 21.6486 0.728312C21.5946 0.627171 21.4737 0.512792 21.3721 0.500613C21.3004 0.492141 21.1816 0.631408 21.1297 0.728842C20.6226 1.67935 20.1331 2.63886 19.618 3.58461C19.5227 3.75936 19.3606 3.92775 19.1868 4.02677C18.2383 4.56848 17.2759 5.08583 16.3221 5.61907C16.2232 5.67415 16.075 5.79435 16.0873 5.85789C16.1071 5.96009 16.2264 6.06759 16.3307 6.12637C17.2904 6.66649 18.2597 7.18914 19.2151 7.7372C19.3879 7.83623 19.5489 8.00515 19.6431 8.18042C20.1508 9.12034 20.6333 10.0735 21.1335 11.0171C21.1854 11.1156 21.3073 11.2581 21.3769 11.248C21.4796 11.2332 21.5973 11.1161 21.6524 11.0129C22.1493 10.0873 22.6404 9.15847 23.1181 8.22278C23.2412 7.98185 23.4097 7.81769 23.6467 7.6906C24.6101 7.1759 25.5677 6.65007 26.5252 6.12478C26.6173 6.07447 26.6938 5.9961 26.8307 5.88966H26.8318Z" fill="white"/>
<path d="M20.3219 21.4101C20.2802 21.2608 20.254 21.1046 20.193 20.9632C19.9426 20.3834 19.7698 19.7871 19.7206 19.1554C19.6666 18.4617 19.8051 17.8067 20.079 17.1723C20.2224 16.8408 20.3631 16.5077 20.5006 16.1736C20.7477 15.572 21.1538 15.2887 21.7625 15.2967C22.5131 15.3067 23.0336 16.0338 22.7747 16.7312C22.5912 17.2258 22.3718 17.7071 22.1857 18.2006C21.9867 18.7291 22.0728 19.2602 22.2215 19.7834C22.3301 20.1642 22.4826 20.5348 22.566 20.9209C22.772 21.873 22.4708 22.6784 21.7069 23.2714C20.943 23.8645 20.0903 23.9027 19.2172 23.4917C18.8481 23.318 18.486 23.129 18.1136 22.9622C17.8264 22.8335 17.5519 22.8775 17.2743 23.0363C16.1306 23.6914 14.9007 24.1309 13.5997 24.3422C10.9506 24.7721 8.44973 24.3337 6.15479 22.941C3.66406 21.4297 1.94312 19.2952 1.10646 16.5136C0.378387 14.0936 0.409415 11.6699 1.329 9.29867C2.32026 6.74315 4.04922 4.8093 6.51267 3.55431C7.83186 2.88233 9.25697 2.53496 10.7329 2.39728C10.9988 2.37239 11.2657 2.34591 11.5327 2.34644C12.1532 2.34697 12.686 2.82938 12.7277 3.4108C12.7748 4.06689 12.3394 4.60066 11.6814 4.6928C10.872 4.80612 10.0439 4.84584 9.25697 5.046C5.89962 5.90014 3.4902 8.62987 3.03282 12.0252C2.38873 16.8032 5.59791 21.1872 10.3873 22.0202C12.2976 22.3522 14.1347 22.0445 15.8476 21.1343C16.7757 20.6413 17.7354 20.4374 18.755 20.7276C19.1509 20.8404 19.5147 21.0638 19.8902 21.2433C20.0095 21.3005 20.1181 21.3784 20.232 21.4467C20.262 21.435 20.2919 21.4234 20.3224 21.4117L20.3219 21.4101Z" fill="#F8FAFB"/>
<path d="M12.1541 13.5123C13.9821 13.5123 15.8094 13.5118 17.6374 13.5123C18.474 13.5123 18.871 14.0021 18.6902 14.8261C18.4382 15.9741 17.8851 16.9707 17.0762 17.8222C15.7511 19.2175 14.1329 19.9874 12.1787 20.0086C9.12951 20.042 6.36916 17.9355 5.64965 15.0082C5.58065 14.727 5.55497 14.4061 5.62023 14.1292C5.72027 13.7045 6.06799 13.5133 6.56389 13.5128C8.14199 13.5107 9.7201 13.5123 11.2982 13.5123C11.5833 13.5123 11.869 13.5123 12.1541 13.5123ZM15.8635 15.6918H8.3763C10.0903 18.214 13.774 18.5614 15.8635 15.6918Z" fill="#F8FAFB"/>
<path d="M26.832 5.88966C26.6951 5.9961 26.6186 6.07447 26.5266 6.12478C25.569 6.6506 24.6115 7.1759 23.648 7.6906C23.4105 7.81716 23.2425 7.98185 23.1195 8.22278C22.6418 9.15847 22.1507 10.0873 21.6537 11.0129C21.5986 11.1156 21.4809 11.2326 21.3782 11.248C21.3087 11.2581 21.1867 11.1156 21.1348 11.0171C20.6346 10.073 20.1526 9.11981 19.6444 8.18042C19.5497 8.00568 19.3893 7.83676 19.2165 7.7372C18.2616 7.18914 17.2917 6.66702 16.332 6.12637C16.2277 6.06759 16.1084 5.96009 16.0886 5.85789C16.0763 5.79435 16.2245 5.67415 16.3235 5.61907C17.2767 5.08583 18.2396 4.56901 19.1881 4.02677C19.3614 3.92775 19.5241 3.75936 19.6193 3.58461C20.1344 2.63834 20.6239 1.67882 21.1311 0.728842C21.1829 0.631408 21.3017 0.492141 21.3734 0.500613C21.475 0.512792 21.5959 0.627171 21.65 0.728312C22.132 1.63222 22.6059 2.53984 23.0703 3.45276C23.1997 3.70693 23.3698 3.89439 23.6245 4.03312C24.5997 4.56372 25.5674 5.10755 26.5357 5.65085C26.6266 5.70168 26.7004 5.78164 26.8331 5.88966H26.832Z" fill="#F8FAFB"/>
<path d="M17.5 15C15 19 10 21 7 15H17.5Z" fill="#F8FAFB"/>
</g>
<defs>
<clipPath id="clip0_93_150">
<rect width="26.25" height="24" fill="white" transform="translate(0.588867 0.5)"/>
</clipPath>
</defs>
</svg>
