<svg width="35" height="32" viewBox="0 0 35 32" fill="none" xmlns="http://www.w3.org/2000/svg">
<g clip-path="url(#clip0_350_2501)">
<path d="M26.3106 27.8803C26.2707 27.8958 26.2307 27.9113 26.1901 27.9269C26.0389 27.8358 25.8934 27.7313 25.7343 27.6557C25.2343 27.4164 24.7486 27.1184 24.2208 26.9681C22.8613 26.5804 21.5817 26.853 20.3441 27.5103C18.0603 28.724 15.6109 29.1342 13.0638 28.6915C6.67793 27.5809 2.39903 21.7356 3.2578 15.3649C3.86836 10.8378 7.08021 7.19814 11.5567 6.05929C12.6059 5.79241 13.71 5.73946 14.7892 5.58836C15.6665 5.46551 16.2471 4.75453 16.1844 3.87903C16.1287 3.1038 15.4183 2.46059 14.5909 2.45988C14.2357 2.45988 13.8791 2.49448 13.5246 2.52766C11.5567 2.71124 9.65653 3.1744 7.89761 4.07037C4.61301 5.7444 2.30773 8.32216 0.986045 11.7295C-0.240064 14.8919 -0.281433 18.1235 0.689325 21.3494C1.80488 25.0582 4.09946 27.9043 7.42044 29.9193C10.4811 31.7762 13.8149 32.3608 17.347 31.7875C19.0817 31.5058 20.7215 30.9198 22.2464 30.0464C22.6166 29.8346 22.9825 29.7767 23.3656 29.9476C23.862 30.17 24.3449 30.422 24.837 30.6536C26.0011 31.2015 27.138 31.1507 28.1566 30.3599C29.1751 29.5691 29.576 28.4952 29.3021 27.2258C29.1908 26.7118 28.9875 26.2175 28.8427 25.7092C28.6444 25.0116 28.5296 24.3035 28.7949 23.5988C29.0425 22.9408 29.3356 22.299 29.5803 21.6395C29.9255 20.7104 29.2315 19.741 28.2308 19.7269C27.4191 19.7156 26.8777 20.094 26.5482 20.8961C26.3648 21.3416 26.178 21.7857 25.9861 22.2277C25.6202 23.0728 25.4362 23.9469 25.5082 24.8718C25.5738 25.7141 25.8035 26.5098 26.138 27.2822C26.2193 27.4708 26.2536 27.679 26.3099 27.8781L26.3106 27.8803ZM15.4205 17.3496C15.0403 17.3496 14.6594 17.3496 14.2792 17.3496C12.1751 17.3496 10.0709 17.3482 7.9668 17.3503C7.30631 17.351 6.84198 17.6059 6.7086 18.1722C6.62158 18.5414 6.65581 18.97 6.74783 19.3442C7.70646 23.2472 11.3869 26.0566 15.4533 26.0114C18.0595 25.9824 20.2165 24.9565 21.9832 23.0961C23.0617 21.9608 23.7992 20.632 24.1352 19.1013C24.3763 18.002 23.847 17.3496 22.7315 17.3496C20.2942 17.3489 17.8577 17.3496 15.4205 17.3496ZM34.9904 7.18614C34.8135 7.04211 34.7144 6.9362 34.5938 6.86771C33.3028 6.14331 32.0125 5.41821 30.7122 4.71075C30.3727 4.52577 30.1452 4.27583 29.9733 3.93693C29.3542 2.71971 28.7222 1.50955 28.0795 0.304335C28.0075 0.169481 27.8463 0.0169751 27.7108 0.00073615C27.6152 -0.0105605 27.4569 0.175129 27.3877 0.305041C26.7115 1.57239 26.0588 2.85174 25.372 4.11273C25.245 4.34573 25.0289 4.57025 24.7971 4.70228C23.5325 5.42456 22.2493 6.11436 20.9775 6.82535C20.8456 6.89878 20.648 7.05905 20.6644 7.14378C20.6908 7.28004 20.8499 7.42337 20.9889 7.50174C22.2685 8.2219 23.561 8.91877 24.8349 9.64952C25.0653 9.78155 25.28 10.0068 25.4055 10.2405C26.0824 11.4937 26.7258 12.7646 27.3927 14.0228C27.4618 14.1541 27.6245 14.344 27.7172 14.3306C27.8541 14.3108 28.0111 14.1548 28.0845 14.0171C28.7472 12.7829 29.4019 11.5445 30.0389 10.297C30.2029 9.97571 30.4276 9.75684 30.7436 9.58739C32.0282 8.90112 33.3049 8.20002 34.5817 7.49962C34.7044 7.43255 34.8064 7.32805 34.989 7.18614H34.9904Z" fill="white"/>
<path d="M26.3107 27.8802C26.255 27.6811 26.2201 27.4728 26.1388 27.2843C25.8049 26.5112 25.5746 25.7162 25.5089 24.8739C25.4369 23.9489 25.6216 23.0756 25.9868 22.2297C26.178 21.7877 26.3656 21.3436 26.5489 20.8981C26.8784 20.0961 27.4198 19.7183 28.2315 19.7289C29.2322 19.7423 29.9262 20.7117 29.581 21.6416C29.3363 22.301 29.0439 22.9428 28.7957 23.6009C28.5303 24.3055 28.6452 25.0137 28.8435 25.7112C28.9883 26.2189 29.1915 26.7131 29.3028 27.2278C29.5774 28.4973 29.1759 29.5712 28.1573 30.3619C27.1388 31.1527 26.0018 31.2035 24.8378 30.6556C24.3456 30.4241 23.8627 30.172 23.3663 29.9496C22.9833 29.778 22.6174 29.8366 22.2472 30.0484C20.7222 30.9218 19.0824 31.5078 17.3477 31.7895C13.8156 32.3629 10.4811 31.7783 7.42117 29.9214C4.10019 27.9063 1.80561 25.0603 0.690057 21.3514C-0.280701 18.1248 -0.239331 14.8932 0.986777 11.7316C2.30846 8.3242 4.61375 5.74573 7.89835 4.07241C9.65727 3.17644 11.5574 2.71328 13.5253 2.5297C13.8798 2.49652 14.2357 2.46122 14.5917 2.46192C15.419 2.46263 16.1295 3.10584 16.1851 3.88107C16.2479 4.75586 15.6673 5.46755 14.7899 5.5904C13.7108 5.7415 12.6066 5.79445 11.5574 6.06133C7.08094 7.20018 3.86838 10.8398 3.25854 15.367C2.39976 21.7376 6.67866 27.5829 13.0645 28.6936C15.6116 29.1362 18.061 28.726 20.3449 27.5123C21.5824 26.855 22.862 26.5832 24.2215 26.9701C24.7493 27.1205 25.2343 27.4184 25.735 27.6578C25.8941 27.734 26.0389 27.8378 26.1908 27.9289C26.2308 27.9134 26.2707 27.8978 26.3114 27.8823L26.3107 27.8802Z" fill="#4B4B4B"/>
<path d="M15.4205 17.3496C17.8577 17.3496 20.2942 17.3489 22.7315 17.3496C23.847 17.3496 24.3763 18.0027 24.1352 19.1013C23.7992 20.632 23.0617 21.9608 21.9832 23.0961C20.2165 24.9565 18.0588 25.9831 15.4533 26.0114C11.3876 26.0559 7.70718 23.2472 6.74784 19.3442C6.65583 18.9693 6.62159 18.5414 6.70861 18.1722C6.84199 17.6059 7.30561 17.3511 7.96681 17.3503C10.071 17.3475 12.1751 17.3496 14.2792 17.3496C14.6594 17.3496 15.0403 17.3496 15.4205 17.3496ZM20.3663 20.2557H10.3834C12.6687 23.6186 17.5802 24.0818 20.3663 20.2557Z" fill="#4B4B4B"/>
<path d="M34.9904 7.18614C34.8078 7.32805 34.7058 7.43255 34.5831 7.49962C33.3064 8.20072 32.0296 8.90112 30.745 9.58739C30.4283 9.75613 30.2044 9.97571 30.0403 10.297C29.4034 11.5445 28.7486 12.7829 28.086 14.0171C28.0125 14.1541 27.8556 14.3101 27.7186 14.3306C27.6259 14.344 27.4633 14.1541 27.3941 14.0228C26.7272 12.7639 26.0845 11.493 25.4069 10.2405C25.2807 10.0075 25.0667 9.78226 24.8363 9.64952C23.5631 8.91877 22.27 8.22261 20.9904 7.50174C20.8513 7.42337 20.6922 7.28004 20.6658 7.14378C20.6494 7.05905 20.847 6.89878 20.979 6.82535C22.25 6.11436 23.5339 5.42527 24.7985 4.70228C25.0296 4.57025 25.2465 4.34573 25.3734 4.11273C26.0603 2.85103 26.7129 1.57168 27.3891 0.305041C27.4583 0.175129 27.6166 -0.0105605 27.7122 0.00073615C27.8477 0.0169751 28.0089 0.169481 28.081 0.304335C28.7236 1.50955 29.3556 2.71971 29.9747 3.93693C30.1473 4.27583 30.3741 4.52577 30.7137 4.71075C32.0139 5.41821 33.3042 6.14331 34.5953 6.86771C34.7165 6.93549 34.8149 7.04211 34.9918 7.18614H34.9904Z" fill="#4B4B4B"/>
<path d="M20.3663 20.2556C17.5802 24.0817 12.6687 23.6185 10.3834 20.2556H20.3663Z" fill="#4B4B4B"/>
</g>
<defs>
<clipPath id="clip0_350_2501">
<rect width="35" height="32" fill="white"/>
</clipPath>
</defs>
</svg>
